<?xml version="1.0" encoding="UTF-8" standalone="no"?>
<svg
   viewBox="0 0 150.00001 180.2642"
   version="1.1"
   id="svg177"
   sodipodi:docname="logo.svg"
   width="150"
   height="180.26422"
   inkscape:version="1.2.2 (b0a8486, 2022-12-01)"
   xmlns:inkscape="http://www.inkscape.org/namespaces/inkscape"
   xmlns:sodipodi="http://sodipodi.sourceforge.net/DTD/sodipodi-0.dtd"
   xmlns:xlink="http://www.w3.org/1999/xlink"
   xmlns="http://www.w3.org/2000/svg"
   xmlns:svg="http://www.w3.org/2000/svg">
  <defs
     id="defs181">
    <inkscape:path-effect
       effect="bend_path"
       id="path-effect2892"
       is_visible="true"
       lpeversion="1"
       bendpath="m -46.309556,-87.326261 20.349193,-1.394033"
       prop_scale="1"
       scale_y_rel="false"
       vertical="false"
       hide_knot="false" />
    <inkscape:path-effect
       effect="bend_path"
       id="path-effect2814"
       is_visible="true"
       lpeversion="1"
       bendpath="m -43.02201,-88.699794 c 0,0 17.085643,-0.102502 17.085643,-0.102502"
       prop_scale="1"
       scale_y_rel="false"
       vertical="false"
       hide_knot="false" />
    <inkscape:path-effect
       effect="bspline"
       id="path-effect2812"
       is_visible="true"
       lpeversion="1"
       weight="33.333333"
       steps="2"
       helper_size="0"
       apply_no_weight="true"
       apply_with_weight="true"
       only_selected="false" />
    <inkscape:path-effect
       effect="bend_path"
       id="path-effect2620"
       is_visible="true"
       lpeversion="1"
       bendpath="m -26.824244,-84.097433 c -0.170158,0.01292 -0.350133,0.02659 -0.481594,0.03379 -0.131461,0.0072 -0.215448,0.0072 -0.310297,0.0072"
       prop_scale="1"
       scale_y_rel="false"
       vertical="false"
       hide_knot="false" />
    <inkscape:path-effect
       effect="bspline"
       id="path-effect2618"
       is_visible="true"
       lpeversion="1"
       weight="33.333333"
       steps="2"
       helper_size="0"
       apply_no_weight="true"
       apply_with_weight="true"
       only_selected="false" />
    <linearGradient
       id="linearGradient1525"
       inkscape:swatch="solid">
      <stop
         style="stop-color:#000000;stop-opacity:1;"
         offset="0"
         id="stop1523" />
    </linearGradient>
    <inkscape:path-effect
       effect="bspline"
       id="path-effect5177"
       is_visible="true"
       lpeversion="1"
       weight="33.333333"
       steps="2"
       helper_size="0"
       apply_no_weight="true"
       apply_with_weight="true"
       only_selected="false" />
    <inkscape:path-effect
       effect="bspline"
       id="path-effect5177-7"
       is_visible="true"
       lpeversion="1"
       weight="33.333333"
       steps="2"
       helper_size="0"
       apply_no_weight="true"
       apply_with_weight="true"
       only_selected="false" />
    <inkscape:path-effect
       effect="bspline"
       id="path-effect5177-1"
       is_visible="true"
       lpeversion="1"
       weight="33.333333"
       steps="2"
       helper_size="0"
       apply_no_weight="true"
       apply_with_weight="true"
       only_selected="false" />
    <inkscape:path-effect
       effect="bspline"
       id="path-effect5177-8"
       is_visible="true"
       lpeversion="1"
       weight="33.333333"
       steps="2"
       helper_size="0"
       apply_no_weight="true"
       apply_with_weight="true"
       only_selected="false" />
    <inkscape:path-effect
       effect="bspline"
       id="path-effect5177-9"
       is_visible="true"
       lpeversion="1"
       weight="33.333333"
       steps="2"
       helper_size="0"
       apply_no_weight="true"
       apply_with_weight="true"
       only_selected="false" />
    <inkscape:path-effect
       effect="bspline"
       id="path-effect5177-3"
       is_visible="true"
       lpeversion="1"
       weight="33.333333"
       steps="2"
       helper_size="0"
       apply_no_weight="true"
       apply_with_weight="true"
       only_selected="false" />
    <inkscape:path-effect
       effect="bspline"
       id="path-effect5177-7-0"
       is_visible="true"
       lpeversion="1"
       weight="33.333333"
       steps="2"
       helper_size="0"
       apply_no_weight="true"
       apply_with_weight="true"
       only_selected="false" />
    <inkscape:path-effect
       effect="bspline"
       id="path-effect5177-1-1"
       is_visible="true"
       lpeversion="1"
       weight="33.333333"
       steps="2"
       helper_size="0"
       apply_no_weight="true"
       apply_with_weight="true"
       only_selected="false" />
    <inkscape:path-effect
       effect="bspline"
       id="path-effect5177-8-5"
       is_visible="true"
       lpeversion="1"
       weight="33.333333"
       steps="2"
       helper_size="0"
       apply_no_weight="true"
       apply_with_weight="true"
       only_selected="false" />
    <inkscape:path-effect
       effect="bspline"
       id="path-effect5177-9-2"
       is_visible="true"
       lpeversion="1"
       weight="33.333333"
       steps="2"
       helper_size="0"
       apply_no_weight="true"
       apply_with_weight="true"
       only_selected="false" />
    <inkscape:path-effect
       effect="bspline"
       id="path-effect5177-3-9"
       is_visible="true"
       lpeversion="1"
       weight="33.333333"
       steps="2"
       helper_size="0"
       apply_no_weight="true"
       apply_with_weight="true"
       only_selected="false" />
    <inkscape:path-effect
       effect="bspline"
       id="path-effect5177-7-0-7"
       is_visible="true"
       lpeversion="1"
       weight="33.333333"
       steps="2"
       helper_size="0"
       apply_no_weight="true"
       apply_with_weight="true"
       only_selected="false" />
    <inkscape:path-effect
       effect="bspline"
       id="path-effect5177-1-1-2"
       is_visible="true"
       lpeversion="1"
       weight="33.333333"
       steps="2"
       helper_size="0"
       apply_no_weight="true"
       apply_with_weight="true"
       only_selected="false" />
    <inkscape:path-effect
       effect="bspline"
       id="path-effect5177-8-5-4"
       is_visible="true"
       lpeversion="1"
       weight="33.333333"
       steps="2"
       helper_size="0"
       apply_no_weight="true"
       apply_with_weight="true"
       only_selected="false" />
    <inkscape:path-effect
       effect="bspline"
       id="path-effect5177-9-2-2"
       is_visible="true"
       lpeversion="1"
       weight="33.333333"
       steps="2"
       helper_size="0"
       apply_no_weight="true"
       apply_with_weight="true"
       only_selected="false" />
    <inkscape:path-effect
       effect="bspline"
       id="path-effect5177-8-0"
       is_visible="true"
       lpeversion="1"
       weight="33.333333"
       steps="2"
       helper_size="0"
       apply_no_weight="true"
       apply_with_weight="true"
       only_selected="false" />
    <inkscape:path-effect
       effect="bspline"
       id="path-effect5177-9-0"
       is_visible="true"
       lpeversion="1"
       weight="33.333333"
       steps="2"
       helper_size="0"
       apply_no_weight="true"
       apply_with_weight="true"
       only_selected="false" />
    <inkscape:path-effect
       effect="bspline"
       id="path-effect5177-3-4"
       is_visible="true"
       lpeversion="1"
       weight="33.333333"
       steps="2"
       helper_size="0"
       apply_no_weight="true"
       apply_with_weight="true"
       only_selected="false" />
    <inkscape:path-effect
       effect="bspline"
       id="path-effect5177-7-0-5"
       is_visible="true"
       lpeversion="1"
       weight="33.333333"
       steps="2"
       helper_size="0"
       apply_no_weight="true"
       apply_with_weight="true"
       only_selected="false" />
    <inkscape:path-effect
       effect="bspline"
       id="path-effect5177-1-1-7"
       is_visible="true"
       lpeversion="1"
       weight="33.333333"
       steps="2"
       helper_size="0"
       apply_no_weight="true"
       apply_with_weight="true"
       only_selected="false" />
    <inkscape:path-effect
       effect="bspline"
       id="path-effect5177-8-5-0"
       is_visible="true"
       lpeversion="1"
       weight="33.333333"
       steps="2"
       helper_size="0"
       apply_no_weight="true"
       apply_with_weight="true"
       only_selected="false" />
    <inkscape:path-effect
       effect="bspline"
       id="path-effect5177-9-2-1"
       is_visible="true"
       lpeversion="1"
       weight="33.333333"
       steps="2"
       helper_size="0"
       apply_no_weight="true"
       apply_with_weight="true"
       only_selected="false" />
    <inkscape:path-effect
       effect="bspline"
       id="path-effect5177-3-9-8"
       is_visible="true"
       lpeversion="1"
       weight="33.333333"
       steps="2"
       helper_size="0"
       apply_no_weight="true"
       apply_with_weight="true"
       only_selected="false" />
    <inkscape:path-effect
       effect="bspline"
       id="path-effect5177-7-0-7-6"
       is_visible="true"
       lpeversion="1"
       weight="33.333333"
       steps="2"
       helper_size="0"
       apply_no_weight="true"
       apply_with_weight="true"
       only_selected="false" />
    <inkscape:path-effect
       effect="bspline"
       id="path-effect5177-1-1-2-3"
       is_visible="true"
       lpeversion="1"
       weight="33.333333"
       steps="2"
       helper_size="0"
       apply_no_weight="true"
       apply_with_weight="true"
       only_selected="false" />
    <inkscape:path-effect
       effect="bspline"
       id="path-effect5177-1-0"
       is_visible="true"
       lpeversion="1"
       weight="33.333333"
       steps="2"
       helper_size="0"
       apply_no_weight="true"
       apply_with_weight="true"
       only_selected="false" />
    <inkscape:path-effect
       effect="bspline"
       id="path-effect5177-7-9"
       is_visible="true"
       lpeversion="1"
       weight="33.333333"
       steps="2"
       helper_size="0"
       apply_no_weight="true"
       apply_with_weight="true"
       only_selected="false" />
    <inkscape:path-effect
       effect="bspline"
       id="path-effect5177-6"
       is_visible="true"
       lpeversion="1"
       weight="33.333333"
       steps="2"
       helper_size="0"
       apply_no_weight="true"
       apply_with_weight="true"
       only_selected="false" />
    <inkscape:path-effect
       effect="bspline"
       id="path-effect5177-9-2-1-8"
       is_visible="true"
       lpeversion="1"
       weight="33.333333"
       steps="2"
       helper_size="0"
       apply_no_weight="true"
       apply_with_weight="true"
       only_selected="false" />
    <linearGradient
       inkscape:collect="always"
       xlink:href="#linearGradient1525"
       id="linearGradient1527"
       x1="123.7405"
       y1="5.1999998"
       x2="131.5395"
       y2="5.1999998"
       gradientUnits="userSpaceOnUse"
       gradientTransform="matrix(0.47191214,0,0,0.55239302,-72.547965,-63.116719)" />
    <linearGradient
       inkscape:collect="always"
       xlink:href="#linearGradient1525"
       id="linearGradient1529"
       x1="115.4208"
       y1="15.5"
       x2="126.5992"
       y2="15.5"
       gradientUnits="userSpaceOnUse"
       gradientTransform="matrix(0.47191214,0,0,0.55239302,-72.638557,-62.844933)" />
    <linearGradient
       inkscape:collect="always"
       xlink:href="#linearGradient1525"
       id="linearGradient1531"
       x1="106.8409"
       y1="28.799999"
       x2="120.3591"
       y2="28.799999"
       gradientUnits="userSpaceOnUse"
       gradientTransform="matrix(0.47191214,0,0,0.55239302,-74.08807,-63.750881)" />
    <linearGradient
       inkscape:collect="always"
       xlink:href="#linearGradient1525"
       id="linearGradient1533"
       x1="96.710798"
       y1="42"
       x2="108.4092"
       y2="42"
       gradientUnits="userSpaceOnUse"
       gradientTransform="matrix(0.47191214,0,0,0.55239302,-73.90754,-63.980585)" />
    <linearGradient
       inkscape:collect="always"
       xlink:href="#linearGradient1525"
       id="linearGradient1535"
       x1="84.488701"
       y1="46.5"
       x2="94.367301"
       y2="46.5"
       gradientUnits="userSpaceOnUse"
       gradientTransform="matrix(0.47191214,0,0,0.55239302,-73.640976,-63.626645)" />
    <linearGradient
       inkscape:collect="always"
       xlink:href="#linearGradient1525"
       id="linearGradient1537"
       x1="73.829496"
       y1="42.900002"
       x2="81.628496"
       y2="42.900002"
       gradientUnits="userSpaceOnUse"
       gradientTransform="matrix(0.47191214,0,0,0.55239302,-73.299242,-63.73533)" />
    <linearGradient
       inkscape:collect="always"
       xlink:href="#linearGradient1525"
       id="linearGradient1539"
       x1="64.211503"
       y1="37.400002"
       x2="71.276229"
       y2="37.400002"
       gradientUnits="userSpaceOnUse"
       gradientTransform="matrix(0.47191214,0,0,0.55239302,-73.639651,-63.686817)" />
    <linearGradient
       inkscape:collect="always"
       xlink:href="#linearGradient1525"
       id="linearGradient1541"
       x1="57.192299"
       y1="30.299999"
       x2="62.131699"
       y2="30.299999"
       gradientUnits="userSpaceOnUse"
       gradientTransform="matrix(0.47191214,0,0,0.55239302,-74.495741,-63.071422)" />
    <linearGradient
       inkscape:collect="always"
       xlink:href="#linearGradient1525"
       id="linearGradient1543"
       x1="39.774998"
       y1="23.799999"
       x2="54.592998"
       y2="23.799999"
       gradientUnits="userSpaceOnUse"
       gradientTransform="matrix(0.47191214,0,0,0.55239302,-74.722225,-63.207309)" />
    <linearGradient
       inkscape:collect="always"
       xlink:href="#linearGradient1525"
       id="linearGradient1545"
       x1="27.963965"
       y1="31.63591"
       x2="39.922365"
       y2="31.63591"
       gradientUnits="userSpaceOnUse"
       gradientTransform="matrix(0.47191214,0,0,0.55239302,-75.31109,-63.433798)" />
    <linearGradient
       inkscape:collect="always"
       xlink:href="#linearGradient1525"
       id="linearGradient1547"
       x1="16.377699"
       y1="39.5"
       x2="26.256299"
       y2="39.5"
       gradientUnits="userSpaceOnUse"
       gradientTransform="matrix(0.47191214,0,0,0.55239302,-73.952171,-62.256065)" />
    <linearGradient
       inkscape:collect="always"
       xlink:href="#linearGradient1525"
       id="linearGradient1549"
       x1="51.212901"
       y1="11"
       x2="63.951101"
       y2="11"
       gradientUnits="userSpaceOnUse"
       gradientTransform="matrix(0.47191214,0,0,0.55239302,-74.4097,-64.630283)" />
    <linearGradient
       inkscape:collect="always"
       xlink:href="#linearGradient1525"
       id="linearGradient1551"
       x1="66.030803"
       y1="5.5999999"
       x2="77.209203"
       y2="5.5999999"
       gradientUnits="userSpaceOnUse"
       gradientTransform="matrix(0.47191214,0,0,0.55239302,-75.404905,-65.124)" />
    <linearGradient
       inkscape:collect="always"
       xlink:href="#linearGradient1525"
       id="linearGradient1553"
       x1="79.288696"
       y1="7.9000001"
       x2="89.947296"
       y2="7.9000001"
       gradientUnits="userSpaceOnUse"
       gradientTransform="matrix(0.47191214,0,0,0.55239302,-75.797711,-64.811476)" />
    <linearGradient
       inkscape:collect="always"
       xlink:href="#linearGradient1525"
       id="linearGradient1555"
       x1="90.727598"
       y1="13.9"
       x2="99.306398"
       y2="13.9"
       gradientUnits="userSpaceOnUse"
       gradientTransform="matrix(0.47191214,0,0,0.55239302,-75.628167,-64.090608)" />
    <linearGradient
       inkscape:collect="always"
       xlink:href="#linearGradient1525"
       id="linearGradient1557"
       x1="100.3504"
       y1="19.9"
       x2="106.8496"
       y2="19.9"
       gradientUnits="userSpaceOnUse"
       gradientTransform="matrix(0.47191214,0,0,0.552393,-74.971371,-63.841477)" />
  </defs>
  <sodipodi:namedview
     id="namedview179"
     pagecolor="#ffffff"
     bordercolor="#666666"
     borderopacity="1.0"
     inkscape:showpageshadow="2"
     inkscape:pageopacity="0.0"
     inkscape:pagecheckerboard="0"
     inkscape:deskcolor="#d1d1d1"
     showgrid="false"
     showguides="true"
     inkscape:zoom="4"
     inkscape:cx="62.125"
     inkscape:cy="86.125"
     inkscape:window-width="1920"
     inkscape:window-height="1027"
     inkscape:window-x="1440"
     inkscape:window-y="25"
     inkscape:window-maximized="0"
     inkscape:current-layer="g3837" />
  <g
     id="g465"
     transform="matrix(1.9512932,0,0,1.9512932,-22.886372,-7.7486739)">
    <g
       id="g3837"
       transform="translate(-0.23673254,1.1069714)">
      <ellipse
         style="fill:#ffffff;fill-opacity:1;stroke:#060308;stroke-width:1.472;stroke-miterlimit:1;stroke-dasharray:none;stroke-opacity:0.993671"
         id="path826"
         cx="50.396236"
         cy="38.677273"
         rx="35.382404"
         ry="33.332489" />
      <path
         style="fill:none;stroke:#060308;stroke-width:0.54631px;stroke-linecap:butt;stroke-linejoin:miter;stroke-opacity:0.832311"
         d="m 67.118354,68.122686 2.966964,4.904572"
         id="path3941"
         sodipodi:nodetypes="cc" />
      <path
         style="fill:none;stroke:#060308;stroke-width:0.54631px;stroke-linecap:butt;stroke-linejoin:miter;stroke-opacity:0.832311"
         d="m 70.165952,66.246562 2.966966,4.904575"
         id="path3941-2"
         sodipodi:nodetypes="cc" />
      <rect
         style="fill:#000000;fill-opacity:0.956879;stroke:#060308;stroke-width:0.7;stroke-linecap:round;stroke-linejoin:round;stroke-miterlimit:1;stroke-dasharray:none;stroke-opacity:0.832311;paint-order:normal"
         id="rect9977"
         width="24.130018"
         height="6.408155"
         x="97.436455"
         y="-26.715286"
         transform="rotate(58.577528)" />
      <ellipse
         cx="-63.892406"
         cy="-40.436535"
         fill="#4266d5"
         id="circle134-6"
         style="stroke:url(#linearGradient1547);stroke-width:0.102496;stroke-dasharray:none"
         transform="matrix(0,-1,-1,0,0,0)"
         rx="2.3309157"
         ry="2.7284348" />
      <ellipse
         cx="-59.292877"
         cy="-45.958347"
         fill="#945bb0"
         id="circle138-5"
         style="stroke:url(#linearGradient1545);stroke-width:0.102496;stroke-dasharray:none"
         transform="matrix(0,-1,-1,0,0,0)"
         rx="2.8216569"
         ry="3.3028684" />
      <ellipse
         cx="-52.455509"
         cy="-50.060356"
         fill="#4266d5"
         id="circle140-8"
         style="stroke:url(#linearGradient1543);stroke-width:0.102496;stroke-dasharray:none"
         transform="matrix(0,-1,-1,0,0,0)"
         rx="3.496397"
         ry="4.09268" />
      <ellipse
         cx="-31.438828"
         cy="-37.940361"
         fill="#c93d39"
         id="circle144-4"
         style="stroke:url(#linearGradient1535);stroke-width:0.102496;stroke-dasharray:none"
         transform="matrix(0,-1,-1,0,0,0)"
         rx="2.3309157"
         ry="2.7284348" />
      <ellipse
         cx="-41.606544"
         cy="-62.030571"
         fill="#945bb0"
         id="circle146-7"
         style="stroke:url(#linearGradient1551);stroke-width:0.102496;stroke-dasharray:none"
         transform="matrix(0,-1,-1,0,0,0)"
         rx="2.6376114"
         ry="3.087435" />
      <ellipse
         cx="-15.532461"
         cy="-54.282848"
         fill="#c93d39"
         id="circle148-1"
         style="stroke:url(#linearGradient1529);stroke-width:0.102496;stroke-dasharray:none"
         transform="matrix(0,-1,-1,0,0,0)"
         rx="2.6376114"
         ry="3.087435" />
      <ellipse
         cx="-12.313087"
         cy="-60.244289"
         fill="#3b972e"
         id="circle156-8"
         style="stroke:url(#linearGradient1527);stroke-width:0.102496;stroke-dasharray:none"
         transform="matrix(0,-1,-1,0,0,0)"
         rx="1.8402213"
         ry="2.1540565" />
      <ellipse
         cx="-36.618023"
         cy="-40.037674"
         fill="#945bb0"
         id="circle164-0"
         style="stroke:url(#linearGradient1537);stroke-width:0.102496;stroke-dasharray:none"
         transform="matrix(0,-1,-1,0,0,0)"
         rx="1.8402213"
         ry="2.1540565" />
      <ellipse
         cx="-25.508249"
         cy="-40.780075"
         fill="#4266d5"
         id="circle166-3"
         style="stroke:url(#linearGradient1533);stroke-width:0.102496;stroke-dasharray:none"
         transform="matrix(0,-1,-1,0,0,0)"
         rx="2.7603083"
         ry="3.2310572" />
      <ellipse
         cx="-20.478846"
         cy="-47.841969"
         fill="#3b972e"
         id="circle168-2"
         style="stroke:url(#linearGradient1531);stroke-width:0.102496;stroke-dasharray:none"
         transform="matrix(0,-1,-1,0,0,0)"
         rx="3.1897013"
         ry="3.7336795" />
      <ellipse
         cx="-47.236042"
         cy="-58.553932"
         fill="#c93d39"
         id="circle170-6"
         style="stroke:url(#linearGradient1549);stroke-width:0.102496;stroke-dasharray:none"
         transform="matrix(0,-1,-1,0,0,0)"
         rx="3.0056558"
         ry="3.5182464" />
      <g
         id="path2957"
         transform="matrix(0.9990331,0.00253456,0.02698271,0.75284671,-0.66160015,6.2825748)"
         style="stroke-width:1.00300305;stroke-dasharray:none">
        <path
           style="color:#000000;fill:#000000;stroke-linecap:round;stroke-linejoin:round;paint-order:stroke fill markers;stroke-width:1.00300305;stroke-dasharray:none"
           d="m 51.814453,25.605469 -10.121094,0.01172 0.06836,0.04297 a 0.074978,0.074978 0 0 0 -0.08789,-0.04102 c 0,0 -0.02879,0.0087 -0.04883,0.02539 -0.02004,0.01666 -0.04082,0.04411 -0.06055,0.08203 -0.03945,0.07585 -0.07199,0.198602 -0.07422,0.414063 -0.0022,0.216115 0.03113,0.348683 0.07031,0.431641 0.01959,0.04148 0.04038,0.07069 0.05859,0.08984 0.01821,0.01916 0.04102,0.0332 0.04102,0.0332 a 0.074978,0.074978 0 0 0 0.0332,0.0078 l 10.136719,0.02734 a 0.074978,0.074978 0 0 0 0.07422,-0.07617 l -0.01563,-0.976563 a 0.074978,0.074978 0 0 0 -0.07422,-0.07227 z m -0.07422,0.148437 0.01367,0.828125 -10.029297,-0.0293 c -0.007,-0.0079 -0.01758,-0.01816 -0.0293,-0.04297 -0.0266,-0.05632 -0.05674,-0.167219 -0.05469,-0.367188 0.0021,-0.200625 0.03308,-0.302362 0.05664,-0.347656 0.01053,-0.02024 0.0174,-0.0256 0.02148,-0.0293 z"
           id="path3343" />
        <path
           style="color:#000000;fill:#fefeff;stroke-width:1.00300305;stroke-linecap:round;stroke-linejoin:round;paint-order:stroke fill markers;stroke-dasharray:none"
           d="m 41.693079,25.691319 10.121417,-0.01156 0.01564,0.976548 -10.135823,-0.02811 c 0,0 -0.08166,-0.07052 -0.07739,-0.486604 0.0043,-0.416087 0.07613,-0.450331 0.07613,-0.450331 z"
           id="path3345"
           sodipodi:nodetypes="ccccccc" />
      </g>
      <g
         id="path2957-2"
         transform="matrix(1.7300391,0.00253456,0.04672632,0.75284671,-32.1243,16.543272)"
         style="stroke-width:1.00300305;stroke-dasharray:none">
        <path
           style="color:#000000;fill:#000000;stroke-linecap:round;stroke-linejoin:round;paint-order:stroke fill markers;stroke-width:1.00300305;stroke-dasharray:none"
           d="m 51.814453,25.605469 -10.121094,0.01172 0.06836,0.04297 a 0.074978,0.074978 0 0 0 -0.08789,-0.04102 c 0,0 -0.02879,0.0087 -0.04883,0.02539 -0.02004,0.01666 -0.04082,0.04411 -0.06055,0.08203 -0.03945,0.07585 -0.07199,0.198602 -0.07422,0.414063 -0.0022,0.216115 0.03113,0.348683 0.07031,0.431641 0.01959,0.04148 0.04038,0.07069 0.05859,0.08984 0.01821,0.01916 0.04102,0.0332 0.04102,0.0332 a 0.074978,0.074978 0 0 0 0.0332,0.0078 l 10.136719,0.02734 a 0.074978,0.074978 0 0 0 0.07422,-0.07617 l -0.01563,-0.976563 a 0.074978,0.074978 0 0 0 -0.07422,-0.07227 z m -0.07422,0.148437 0.01367,0.828125 -10.029297,-0.0293 c -0.007,-0.0079 -0.01758,-0.01816 -0.0293,-0.04297 -0.0266,-0.05632 -0.05674,-0.167219 -0.05469,-0.367188 0.0021,-0.200625 0.03308,-0.302362 0.05664,-0.347656 0.01053,-0.02024 0.0174,-0.0256 0.02148,-0.0293 z"
           id="path3343-2" />
        <path
           style="color:#000000;fill:#fefeff;stroke-width:1.00300305;stroke-linecap:round;stroke-linejoin:round;paint-order:stroke fill markers;stroke-dasharray:none"
           d="m 41.693079,25.691319 10.121417,-0.01156 0.01564,0.976548 -10.135823,-0.02811 c 0,0 -0.08166,-0.07052 -0.07739,-0.486604 0.0043,-0.416087 0.07613,-0.450331 0.07613,-0.450331 z"
           id="path3345-1"
           sodipodi:nodetypes="ccccccc" />
      </g>
      <g
         id="path2957-2-2"
         transform="matrix(-1.6286527,-0.00792766,-0.04921008,0.75254736,129.45609,22.343729)"
         style="stroke-width:1.00300305;stroke-dasharray:none">
        <path
           style="color:#000000;fill:#000000;stroke-linecap:round;stroke-linejoin:round;paint-order:stroke fill markers;stroke-width:1.00300305;stroke-dasharray:none"
           d="m 51.814453,25.605469 -10.121094,0.01172 0.06836,0.04297 a 0.074978,0.074978 0 0 0 -0.08789,-0.04102 c 0,0 -0.02879,0.0087 -0.04883,0.02539 -0.02004,0.01666 -0.04082,0.04411 -0.06055,0.08203 -0.03945,0.07585 -0.07199,0.198602 -0.07422,0.414063 -0.0022,0.216115 0.03113,0.348683 0.07031,0.431641 0.01959,0.04148 0.04038,0.07069 0.05859,0.08984 0.01821,0.01916 0.04102,0.0332 0.04102,0.0332 a 0.074978,0.074978 0 0 0 0.0332,0.0078 l 10.136719,0.02734 a 0.074978,0.074978 0 0 0 0.07422,-0.07617 l -0.01563,-0.976563 a 0.074978,0.074978 0 0 0 -0.07422,-0.07227 z m -0.07422,0.148437 0.01367,0.828125 -10.029297,-0.0293 c -0.007,-0.0079 -0.01758,-0.01816 -0.0293,-0.04297 -0.0266,-0.05632 -0.05674,-0.167219 -0.05469,-0.367188 0.0021,-0.200625 0.03308,-0.302362 0.05664,-0.347656 0.01053,-0.02024 0.0174,-0.0256 0.02148,-0.0293 z"
           id="path3343-2-6" />
        <path
           style="color:#000000;fill:#fefeff;stroke-width:1.00300305;stroke-linecap:round;stroke-linejoin:round;paint-order:stroke fill markers;stroke-dasharray:none"
           d="m 41.693079,25.691319 10.121417,-0.01156 0.01564,0.976548 -10.135823,-0.02811 c 0,0 -0.08166,-0.07052 -0.07739,-0.486604 0.0043,-0.416087 0.07613,-0.450331 0.07613,-0.450331 z"
           id="path3345-1-8"
           sodipodi:nodetypes="ccccccc" />
      </g>
      <g
         id="path2957-2-2-6"
         transform="matrix(-0.99082535,-0.00792766,-0.02993799,0.75254736,98.95827,27.003079)"
         style="stroke-width:1.00300305;stroke-dasharray:none">
        <path
           style="color:#000000;fill:#000000;stroke-linecap:round;stroke-linejoin:round;paint-order:stroke fill markers;stroke-width:1.00300305;stroke-dasharray:none"
           d="m 51.814453,25.605469 -10.121094,0.01172 0.06836,0.04297 a 0.074978,0.074978 0 0 0 -0.08789,-0.04102 c 0,0 -0.02879,0.0087 -0.04883,0.02539 -0.02004,0.01666 -0.04082,0.04411 -0.06055,0.08203 -0.03945,0.07585 -0.07199,0.198602 -0.07422,0.414063 -0.0022,0.216115 0.03113,0.348683 0.07031,0.431641 0.01959,0.04148 0.04038,0.07069 0.05859,0.08984 0.01821,0.01916 0.04102,0.0332 0.04102,0.0332 a 0.074978,0.074978 0 0 0 0.0332,0.0078 l 10.136719,0.02734 a 0.074978,0.074978 0 0 0 0.07422,-0.07617 l -0.01563,-0.976563 a 0.074978,0.074978 0 0 0 -0.07422,-0.07227 z m -0.07422,0.148437 0.01367,0.828125 -10.029297,-0.0293 c -0.007,-0.0079 -0.01758,-0.01816 -0.0293,-0.04297 -0.0266,-0.05632 -0.05674,-0.167219 -0.05469,-0.367188 0.0021,-0.200625 0.03308,-0.302362 0.05664,-0.347656 0.01053,-0.02024 0.0174,-0.0256 0.02148,-0.0293 z"
           id="path3343-2-6-8" />
        <path
           style="color:#000000;fill:#fefeff;stroke-width:1.00300305;stroke-linecap:round;stroke-linejoin:round;paint-order:stroke fill markers;stroke-dasharray:none"
           d="m 41.693079,25.691319 10.121417,-0.01156 0.01564,0.976548 -10.135823,-0.02811 c 0,0 -0.08166,-0.07052 -0.07739,-0.486604 0.0043,-0.416087 0.07613,-0.450331 0.07613,-0.450331 z"
           id="path3345-1-8-7"
           sodipodi:nodetypes="ccccccc" />
      </g>
      <g
         id="path2957-8"
         transform="matrix(1.4935293,-0.00545056,0.04436314,0.75262028,-23.544941,11.776055)"
         style="stroke-width:1.00300305;stroke-dasharray:none">
        <path
           style="color:#000000;fill:#000000;stroke-linecap:round;stroke-linejoin:round;paint-order:stroke fill markers;stroke-width:1.00300305;stroke-dasharray:none"
           d="m 51.814453,25.605469 -10.121094,0.01172 0.06836,0.04297 a 0.074978,0.074978 0 0 0 -0.08789,-0.04102 c 0,0 -0.02879,0.0087 -0.04883,0.02539 -0.02004,0.01666 -0.04082,0.04411 -0.06055,0.08203 -0.03945,0.07585 -0.07199,0.198602 -0.07422,0.414063 -0.0022,0.216115 0.03113,0.348683 0.07031,0.431641 0.01959,0.04148 0.04038,0.07069 0.05859,0.08984 0.01821,0.01916 0.04102,0.0332 0.04102,0.0332 a 0.074978,0.074978 0 0 0 0.0332,0.0078 l 10.136719,0.02734 a 0.074978,0.074978 0 0 0 0.07422,-0.07617 l -0.01563,-0.976563 a 0.074978,0.074978 0 0 0 -0.07422,-0.07227 z m -0.07422,0.148437 0.01367,0.828125 -10.029297,-0.0293 c -0.007,-0.0079 -0.01758,-0.01816 -0.0293,-0.04297 -0.0266,-0.05632 -0.05674,-0.167219 -0.05469,-0.367188 0.0021,-0.200625 0.03308,-0.302362 0.05664,-0.347656 0.01053,-0.02024 0.0174,-0.0256 0.02148,-0.0293 z"
           id="path3343-7" />
        <path
           style="color:#000000;fill:#fefeff;stroke-width:1.00300305;stroke-linecap:round;stroke-linejoin:round;paint-order:stroke fill markers;stroke-dasharray:none"
           d="m 41.693079,25.691319 10.121417,-0.01156 0.01564,0.976548 -10.135823,-0.02811 c 0,0 -0.08166,-0.07052 -0.07739,-0.486604 0.0043,-0.416087 0.07613,-0.450331 0.07613,-0.450331 z"
           id="path3345-3"
           sodipodi:nodetypes="ccccccc" />
      </g>
      <ellipse
         cx="-46.340515"
         cy="-46.333927"
         fill="#4266d5"
         id="circle150-3"
         style="stroke:url(#linearGradient1541);stroke-width:0.102496;stroke-dasharray:none"
         transform="matrix(0,-1,-1,0,0,0)"
         rx="1.1654814"
         ry="1.3642451" />
      <ellipse
         fill="#3b972e"
         id="circle160-4"
         cy="-43.027313"
         cx="-41.670509"
         rx="1.6669649"
         ry="1.8668121"
         style="stroke:url(#linearGradient1539);stroke-width:0.102496;stroke-dasharray:none"
         transform="matrix(0,-1,-1,0,0,0)" />
      <ellipse
         cx="-35.865414"
         cy="-60.447533"
         fill="#3b972e"
         id="circle174-4"
         style="stroke:url(#linearGradient1553);stroke-width:0.102496;stroke-dasharray:none"
         transform="matrix(0,-1,-1,0,0,0)"
         rx="2.5149612"
         ry="2.9438682" />
      <ellipse
         cx="-30.788511"
         cy="-56.412327"
         fill="#4266d5"
         id="circle162-6"
         style="stroke:url(#linearGradient1555);stroke-width:0.102496;stroke-dasharray:none"
         transform="matrix(0,-1,-1,0,0,0)"
         rx="2.02422"
         ry="2.3694346" />
      <ellipse
         cx="-26.081255"
         cy="-52.848843"
         fill="#c93d39"
         id="circle152-8"
         style="stroke:url(#linearGradient1557);stroke-width:0.102496;stroke-dasharray:none"
         transform="matrix(0,-1,-1,0,0,0)"
         rx="1.5335257"
         ry="1.7950562" />
      <path
         style="fill:none;stroke:#000000;stroke-width:0.0854059;stroke-linecap:round;stroke-linejoin:miter;stroke-dasharray:none;stroke-opacity:1"
         d="m 39.552827,27.36704 c 0,0 -0.475314,-0.09214 -0.885058,-0.581971 -0.40974,-0.489836 -0.459375,-1.08516 -0.459375,-1.08516"
         id="path3338"
         sodipodi:nodetypes="czc" />
      <path
         style="fill:none;stroke:#000000;stroke-width:0.0854059;stroke-linecap:round;stroke-linejoin:miter;stroke-dasharray:none;stroke-opacity:1"
         d="m 63.70114,40.172987 c 0,0 0.431829,0.218945 0.691544,0.802362 0.259712,0.583417 0.144195,1.169532 0.144195,1.169532"
         id="path3338-9"
         sodipodi:nodetypes="czc" />
    </g>
  </g>
</svg>
